<svg class="diagram-root" style="background: #f5f6f6" xmlns="http://www.w3.org/2000/svg" xmlns:xlink="http://www.w3.org/1999/xlink"><style>.diagram-root { font-family: "Helvetica Neue", sans-serif; font-size: 12px; } .t { overflow: visible; } .t-bg { y: 40; fill: #fff;   } .th { fill: #005aa0;   } .tht { fill: #fff; font-size: 14px;  } .tf { fill: #323c46; overflow: visible; } .tf.pk { fill: #005aa0; font-weight: bold; } .tf.fk { font-weight: bold; } .ty { fill: #adb1b5; font-weight: normal; text-anchor: end; } .r { fill: transparent; stroke: #c3c3c3; stroke-width: 1; } .l { stroke: 1; } .i { fill: #c2c7ce; stroke: #c2c7ce; } .i.ix { fill: #afb3b6; stroke: #000; } .fa { fill: transparent; overflow: visible; } .fa .bg.hover { fill: #f7f7f7; } .c { cy: 12; r: 4; stroke: #d2d2dc; fill: #d2d2dc; } .hr { fill: transparent; stroke: #323c46; stroke-opacity: 0.035; stroke-width: 13; } .dc { stroke: #fa5a3c; fill: #fa5a3c; } .x { stroke: white; stroke-width: 1; } .hl .th { fill: #1b9bff; } .hl .tht {  } .fhl .bg { fill: #e7f4ff; } .fhls .bg {  } .r.hl { stroke: #1b9bff; } .dim { opacity: 0.25; }</style><g class="drawing-wrapper" transform="translate(2, 100) scale(1,1)"><g class="rs"><path d="M 459.71 -13 m -1, 0 a 1,1 0 1,0 2,0 a 1,1 0 1,0 -2,0 M 459.71 -13 m -0.5, 0 a 0.5,0.5 0 1,0 1,0 a 0.5,0.5 0 1,0 -1,0  M459.71 -13 L459.71 -13 471.71 -13 M465.71 -7 L465.71 -7 465.71 -19 M471.71 -13 Q 490.54 -13, 509.36 27 T 547 67 M 559 67 m -1, 0 a 1,1 0 1,0 2,0 a 1,1 0 1,0 -2,0 M 559 67 m -0.5, 0 a 0.5,0.5 0 1,0 1,0 a 0.5,0.5 0 1,0 -1,0  M559 67 L559 67 547 67 M553 73 L553 73 553 61" id="h1139284389" class="r"></path><path d="M 317 12 m -1, 0 a 1,1 0 1,0 2,0 a 1,1 0 1,0 -2,0 M 317 12 m -0.5, 0 a 0.5,0.5 0 1,0 1,0 a 0.5,0.5 0 1,0 -1,0  M317 12 L317 12 305 12 M 317 18 m -1, 0 a 1,1 0 1,0 2,0 a 1,1 0 1,0 -2,0 M 317 18 m -0.5, 0 a 0.5,0.5 0 1,0 1,0 a 0.5,0.5 0 1,0 -1,0  M317 18 L317 18 310 12 317 6 M 317 6 m -1, 0 a 1,1 0 1,0 2,0 a 1,1 0 1,0 -2,0 M 317 6 m -0.5, 0 a 0.5,0.5 0 1,0 1,0 a 0.5,0.5 0 1,0 -1,0  M305 12 Q 280.21 12, 255.42 49.5 T 205.83 87 M 193.83 87 m -1, 0 a 1,1 0 1,0 2,0 a 1,1 0 1,0 -2,0 M 193.83 87 m -0.5, 0 a 0.5,0.5 0 1,0 1,0 a 0.5,0.5 0 1,0 -1,0  M193.83 87 L193.83 87 205.83 87 M199.83 93 L199.83 93 199.83 81" id="h4223752257" class="r"></path><path d="M 445.71 160 m -1, 0 a 1,1 0 1,0 2,0 a 1,1 0 1,0 -2,0 M 445.71 160 m -0.5, 0 a 0.5,0.5 0 1,0 1,0 a 0.5,0.5 0 1,0 -1,0  M445.71 160 L445.71 160 457.71 160 M451.71 166 L451.71 166 451.71 154 M457.71 160 Q 480.04 160, 502.36 113.5 T 547 67 M 559 67 m -1, 0 a 1,1 0 1,0 2,0 a 1,1 0 1,0 -2,0 M 559 67 m -0.5, 0 a 0.5,0.5 0 1,0 1,0 a 0.5,0.5 0 1,0 -1,0  M559 67 L559 67 547 67 M553 73 L553 73 553 61" id="h2286254435" class="r"></path><path d="M 303 185 m -1, 0 a 1,1 0 1,0 2,0 a 1,1 0 1,0 -2,0 M 303 185 m -0.5, 0 a 0.5,0.5 0 1,0 1,0 a 0.5,0.5 0 1,0 -1,0  M303 185 L303 185 291 185 M 303 191 m -1, 0 a 1,1 0 1,0 2,0 a 1,1 0 1,0 -2,0 M 303 191 m -0.5, 0 a 0.5,0.5 0 1,0 1,0 a 0.5,0.5 0 1,0 -1,0  M303 191 L303 191 296 185 303 179 M 303 179 m -1, 0 a 1,1 0 1,0 2,0 a 1,1 0 1,0 -2,0 M 303 179 m -0.5, 0 a 0.5,0.5 0 1,0 1,0 a 0.5,0.5 0 1,0 -1,0  M291 185 Q 269.71 185, 248.42 136 T 205.83 87 M 193.83 87 m -1, 0 a 1,1 0 1,0 2,0 a 1,1 0 1,0 -2,0 M 193.83 87 m -0.5, 0 a 0.5,0.5 0 1,0 1,0 a 0.5,0.5 0 1,0 -1,0  M193.83 87 L193.83 87 205.83 87 M199.83 93 L199.83 93 199.83 81" id="h4024103493" class="r"></path><path d="M 723.04 92 m -1, 0 a 1,1 0 1,0 2,0 a 1,1 0 1,0 -2,0 M 723.04 92 m -0.5, 0 a 0.5,0.5 0 1,0 1,0 a 0.5,0.5 0 1,0 -1,0  M723.04 92 L723.04 92 735.04 92 M 723.04 98 m -1, 0 a 1,1 0 1,0 2,0 a 1,1 0 1,0 -2,0 M 723.04 98 m -0.5, 0 a 0.5,0.5 0 1,0 1,0 a 0.5,0.5 0 1,0 -1,0  M723.04 98 L723.04 98 730.04 92 723.04 86 M 723.04 86 m -1, 0 a 1,1 0 1,0 2,0 a 1,1 0 1,0 -2,0 M 723.04 86 m -0.5, 0 a 0.5,0.5 0 1,0 1,0 a 0.5,0.5 0 1,0 -1,0  M735.04 92 Q 752.28 92, 769.52 130.5 T 804 169 M 816 169 m -1, 0 a 1,1 0 1,0 2,0 a 1,1 0 1,0 -2,0 M 816 169 m -0.5, 0 a 0.5,0.5 0 1,0 1,0 a 0.5,0.5 0 1,0 -1,0  M816 169 L816 169 804 169 M810 175 L810 175 810 163" id="h1537058300" class="r"></path><path d="M 816 45 m -1, 0 a 1,1 0 1,0 2,0 a 1,1 0 1,0 -2,0 M 816 45 m -0.5, 0 a 0.5,0.5 0 1,0 1,0 a 0.5,0.5 0 1,0 -1,0  M816 45 L816 45 804 45 M810 51 L810 51 810 39 M804 45 Q 786.76 45, 769.52 56 T 735.04 67 M 723.04 67 m -1, 0 a 1,1 0 1,0 2,0 a 1,1 0 1,0 -2,0 M 723.04 67 m -0.5, 0 a 0.5,0.5 0 1,0 1,0 a 0.5,0.5 0 1,0 -1,0  M723.04 67 L723.04 67 735.04 67 M729.04 73 L729.04 73 729.04 61" id="h3177548053" class="r"></path></g><g class="hrs"></g><g class="ts"><svg width="163.83" height="100" x="30" y="30" id="h4180888202" class="t"><rect height="40" width="163.83" class="th"></rect><text x="13" y="25" class="tht">department</text><rect height="60" width="163.83" class="t-bg"></rect><text x="13" y="61" class="tf pk">dept_no<tspan x="150.83" class="ty">INTEGER</tspan></text><path d="M7,14A2,2 0 0,1 5,12A2,2 0 0,1 7,10A2,2 0 0,1 9,12A2,2 0 0,1 7,14M12.65,10C11.83,7.67 9.61,6 7, 6A6, 6 0 0, 0 1, 12A6, 6 0 0, 0 7, 18C9.61, 18 11.83, 16.33 12.65, 14H17V18H21V14H23V10H12.65Z" class="i pk" transform="translate(77.49210937500001, 48) scale(0.65)"></path><text x="13" y="86" class="tf">dept_name<tspan x="150.83" class="ty">VARCHAR</tspan></text></svg><svg width="142.71" height="100" x="317" y="-70" id="h1090417462" class="t"><rect height="40" width="142.71" class="th"></rect><text x="13" y="25" class="tht">dept_emp</text><rect height="60" width="142.71" class="t-bg"></rect><text x="13" y="61" class="tf fk">emp_no<tspan x="129.71" class="ty">INTEGER</tspan></text><text x="13" y="86" class="tf fk">dept_no<tspan x="129.71" class="ty">INTEGER</tspan></text></svg><svg width="142.71" height="100" x="303" y="103" id="h1676682957" class="t"><rect height="40" width="142.71" class="th"></rect><text x="13" y="25" class="tht">dept_manager</text><rect height="60" width="142.71" class="t-bg"></rect><text x="13" y="61" class="tf fk">emp_no<tspan x="129.71" class="ty">INTEGER</tspan></text><text x="13" y="86" class="tf fk">dept_no<tspan x="129.71" class="ty">INTEGER</tspan></text></svg><svg width="164.04" height="225" x="559" y="10" id="h1639608377" class="t"><rect height="40" width="164.04" class="th"></rect><text x="13" y="25" class="tht">employees</text><rect height="185" width="164.04" class="t-bg"></rect><text x="13" y="61" class="tf pk">emp_no<tspan x="151.04" class="ty">INTEGER</tspan></text><path d="M7,14A2,2 0 0,1 5,12A2,2 0 0,1 7,10A2,2 0 0,1 9,12A2,2 0 0,1 7,14M12.65,10C11.83,7.67 9.61,6 7, 6A6, 6 0 0, 0 1, 12A6, 6 0 0, 0 7, 18C9.61, 18 11.83, 16.33 12.65, 14H17V18H21V14H23V10H12.65Z" class="i pk" transform="translate(77.70210937499999, 48) scale(0.65)"></path><text x="13" y="86" class="tf fk">emp_title_id<tspan x="151.04" class="ty">INTEGER</tspan></text><text x="13" y="111" class="tf">birth_date<tspan x="151.04" class="ty">VARCHAR</tspan></text><text x="13" y="136" class="tf">first_name<tspan x="151.04" class="ty">VARCHAR</tspan></text><text x="13" y="161" class="tf">last_name<tspan x="151.04" class="ty">VARCHAR</tspan></text><text x="13" y="186" class="tf">sex<tspan x="151.04" class="ty">VARCHAR</tspan></text><text x="13" y="211" class="tf">hire_date<tspan x="151.04" class="ty">VARCHAR</tspan></text></svg><svg width="142.7" height="100" x="816" y="-12" id="h2472833127" class="t"><rect height="40" width="142.7" class="th"></rect><text x="13" y="25" class="tht">salaries</text><rect height="60" width="142.7" class="t-bg"></rect><text x="13" y="61" class="tf fk">emp_no<tspan x="129.7" class="ty">INTEGER</tspan></text><text x="13" y="86" class="tf">salary<tspan x="129.7" class="ty">INTEGER</tspan></text></svg><svg width="154.03" height="100" x="816" y="112" id="h311790747" class="t"><rect height="40" width="154.03" class="th"></rect><text x="13" y="25" class="tht">titles</text><rect height="60" width="154.03" class="t-bg"></rect><text x="13" y="61" class="tf pk">title_id<tspan x="141.03" class="ty">INTEGER</tspan></text><path d="M7,14A2,2 0 0,1 5,12A2,2 0 0,1 7,10A2,2 0 0,1 9,12A2,2 0 0,1 7,14M12.65,10C11.83,7.67 9.61,6 7, 6A6, 6 0 0, 0 1, 12A6, 6 0 0, 0 7, 18C9.61, 18 11.83, 16.33 12.65, 14H17V18H21V14H23V10H12.65Z" class="i pk" transform="translate(67.692109375, 48) scale(0.65)"></path><text x="13" y="86" class="tf">title<tspan x="141.03" class="ty">VARCHAR</tspan></text></svg></g></g><text class="qdbd-link" x="10" y="20">www.quickdatabasediagrams.com</text></svg>